<?xml version="1.0" encoding="UTF-8"?><svg id="Calque_1" xmlns="http://www.w3.org/2000/svg" viewBox="0 0 328 115"><defs><style>.cls-1{fill:#e84e4f;stroke-width:0px;}</style></defs><path class="cls-1" d="m76.58,38.57c.19,0,.39-.02.6-.07,3.81-.84,6.98-1.61,9.42-2.29,6.94-1.94,14.54-5.55,17.95-7.39.34-.17,1.65-.98,1.86-1.22,1.84-1.66,2.7-4.01,2.42-6.63-.17-1.63-.98-3.19-2.22-4.29-2.59-2.3-6.11-2.69-8.93-1.02-1.09.49-2.34,1.82-4.08,3.66-2.32,2.46-5.5,5.83-10.19,9.26-2.29,1.68-5,3.47-8.07,5.33-1.26.76-1.42,2.09-1.03,3.07.34.84,1.15,1.58,2.27,1.58Z"/><path class="cls-1" d="m302.42,90.56c-2.2,4.42-7.93,10.22-10.57,11.48-4.43,2.11-8.85,3.15-8.99-1.11v-4.25s0-95.97,0-95.97l-14.21,6.55v76.1c-7.68,8.02-21.55,20.72-33.14,22.02-7.8.88-12.9-1.89-16.15-6.46-2.06-3.31-3.66-6.5-4.35-10.85,9.57-9.49,23.52-8.48,32.99-10.35,3.78-.74,11.54-2.41,11.59-10.48.08-14.4-12.21-25.06-27.39-25.06-9.16,0-18.81,3.49-24.92,10.38-6.07,6.84-9.14,15.52-9.14,25.8,0,7.08,1.53,13.22,4.52,18.28-1.6,2.78-2.67,3.92-3.69,5.1-3.2,3.72-9.27,3.46-9.41-.8l-.02-30.77c0-7.32-.53-12.5-1.61-15.83-1.12-3.46-3.56-6.39-7.24-8.71-3.63-2.29-8.22-3.45-13.65-3.45-1.5,0-6.81.28-12.38,3.85-4,2.57-7.11,6.17-9.3,10.75V.63l-13.32,6.66v76.36c-7.74,8.03-21.41,20.44-32.87,21.73-7.8.88-12.9-1.89-16.15-6.46-2.06-3.31-3.66-6.5-4.35-10.85,9.57-9.49,23.52-8.48,32.99-10.35,3.78-.74,11.54-2.41,11.59-10.48.08-14.4-12.21-25.06-27.39-25.06-9.16,0-18.81,3.49-24.92,10.38-6.07,6.84-9.14,15.52-9.14,25.8,0,5.52.92,10.47,2.75,14.77-6.28,5.12-17.31,11.81-28.02,11.69-6.29-.06-11.45-2.72-14.52-7.5-3.13-4.87-4.65-11.9-4.65-21.48,0-8.8,1.56-15.4,4.62-19.63,2.95-4.06,6.78-8.17,12.76-8.21,8.72-.06,8.17,5.83,8.65,8.16,1.21,6.24,5.14,7.55,8.23,7.55,2.24,0,4.08-.87,5.32-2.53,1.11-1.48,1.68-3.11,1.68-4.84,0-4.21-2.64-7.73-7.84-10.45-4.74-2.47-9.98-3.73-15.6-3.73-9.32,0-17.51,3.35-24.34,9.97C3.99,58.75.51,67.48.51,78.07s3.06,18.93,9.09,25.34c6.15,6.54,14.73,9.86,25.5,9.86.14,0,.29,0,.43,0,11.34-.09,24.03-7.82,31.22-15.9,1.65,2.63,3.57,4.96,5.72,6.99h-.03c6.69,6.45,14.76,8.69,24.2,8.67,12.32-.02,26.23-11.55,35.39-22.5v22.7h13.32l-.02-32.31c.02-23.28,10.33-32.01,19.16-32.41,8.22-.38,9.73,5.88,10.38,8.55l.05.2c.59,2.41.89,6.23.89,11.34l-.29,28.08c0,7.68.07,16.55,12.47,16.55,7.71,0,13.35-5.12,17.87-12.03.93,1.12,1.91,2.18,2.96,3.16h-.03c6.69,6.45,14.76,8.69,24.2,8.67,12.45-.02,26.52-11.78,35.66-22.83v6.48c0,7.68.07,16.55,12.47,16.55s20.42-7.36,26.02-19.75c2.21-4.88-3.84-4.68-4.72-2.91ZM93.38,48.23c10.73-.64,16.35,6.78,16.65,12.14.42,7.49-5.41,10.37-12.3,12.72h0s-15.18,5.1-19.95,9.05c-1.06-15.55-.23-32.96,15.6-33.9Zm136.34,0c10.73-.64,16.35,6.78,16.65,12.14.42,7.49-5.41,10.37-12.3,12.72h0s-15.18,5.1-19.95,9.05c-1.06-15.55-.23-32.96,15.6-33.9Z"/><circle class="cls-1" cx="319.84" cy="106.04" r="7.16" transform="translate(99.48 360.95) rotate(-67.5)"/></svg>