<?xml version="1.0" encoding="UTF-8"?><svg id="Calque_1" xmlns="http://www.w3.org/2000/svg" viewBox="0 0 316 110"><defs><style>.cls-1{fill:#fff;stroke-width:0px;}</style></defs><path class="cls-1" d="m73.78,37.17c.18,0,.38-.02.58-.07,3.67-.81,6.72-1.55,9.07-2.21,6.68-1.87,14.01-5.35,17.29-7.11.33-.16,1.59-.94,1.79-1.18,1.77-1.6,2.6-3.87,2.33-6.38-.17-1.57-.95-3.07-2.14-4.14-2.49-2.22-5.89-2.59-8.6-.98-1.05.47-2.26,1.75-3.93,3.53-2.24,2.37-5.3,5.61-9.81,8.92-2.21,1.62-4.82,3.35-7.77,5.13-1.21.73-1.37,2.02-.99,2.96.32.81,1.1,1.52,2.19,1.52Z"/><path class="cls-1" d="m291.32,87.25c-2.12,4.26-7.64,9.84-10.19,11.06-4.27,2.03-8.53,3.03-8.66-1.07v-4.1s0-92.45,0-92.45l-13.68,6.31v73.3c-7.4,7.72-20.76,19.95-31.93,21.21-7.51.84-12.43-1.83-15.56-6.23-1.98-3.19-3.53-6.26-4.19-10.45,9.22-9.14,22.65-8.17,31.78-9.97,3.64-.72,11.12-2.32,11.16-10.1.08-13.87-11.77-24.14-26.39-24.14-8.83,0-18.12,3.36-24,9.99-5.84,6.59-8.81,14.95-8.81,24.85,0,6.82,1.47,12.74,4.35,17.61-1.54,2.68-2.58,3.77-3.56,4.92-3.08,3.58-8.93,3.33-9.06-.77l-.02-29.64c0-7.05-.51-12.04-1.55-15.24-1.08-3.33-3.43-6.15-6.97-8.39-3.49-2.2-7.92-3.32-13.15-3.32-1.44,0-6.56.27-11.92,3.71-3.85,2.48-6.85,5.94-8.96,10.36V.63l-12.83,6.41v73.55c-7.45,7.73-20.63,19.69-31.66,20.93-7.51.84-12.43-1.83-15.56-6.23-1.98-3.19-3.53-6.26-4.19-10.45,9.22-9.14,22.65-8.17,31.78-9.97,3.64-.72,11.12-2.32,11.16-10.1.08-13.87-11.77-24.14-26.39-24.14-8.83,0-18.12,3.36-24,9.99-5.84,6.59-8.81,14.95-8.81,24.85,0,5.31.89,10.08,2.64,14.23-6.05,4.93-16.67,11.37-26.99,11.26-6.06-.06-11.03-2.62-13.98-7.22-3.02-4.7-4.48-11.46-4.48-20.69,0-8.48,1.5-14.84,4.45-18.91,2.84-3.91,6.53-7.87,12.3-7.91,8.4-.06,7.87,5.62,8.34,7.86,1.17,6.01,4.95,7.27,7.92,7.27,2.16,0,3.93-.84,5.12-2.44,1.07-1.43,1.62-3,1.62-4.66,0-4.06-2.54-7.44-7.55-10.06-4.56-2.38-9.62-3.59-15.03-3.59-8.98,0-16.87,3.23-23.45,9.6C3.86,56.61.51,65.02.51,75.23s2.94,18.23,8.75,24.41c5.93,6.3,14.19,9.5,24.56,9.5.14,0,.28,0,.42,0,10.92-.09,23.15-7.53,30.07-15.32,1.59,2.53,3.44,4.78,5.51,6.73h-.03c6.44,6.21,14.22,8.37,23.31,8.35,11.87-.02,25.27-11.12,34.09-21.67v21.87h12.83l-.02-31.12c.02-22.43,9.95-30.84,18.46-31.22,7.91-.37,9.37,5.66,10,8.23l.05.2c.57,2.32.86,6,.86,10.92l-.28,27.05c0,7.39.07,15.94,12.01,15.94,7.43,0,12.86-4.93,17.21-11.59.9,1.08,1.84,2.1,2.85,3.04h-.03c6.44,6.21,14.22,8.37,23.31,8.35,11.99-.02,25.54-11.35,34.35-21.99v6.25c0,7.39.07,15.94,12.01,15.94s19.67-7.09,25.07-19.02c2.13-4.7-3.7-4.51-4.55-2.8ZM89.97,46.48c10.34-.62,15.75,6.53,16.04,11.69.41,7.21-5.21,9.99-11.85,12.25h0s-14.63,4.92-19.22,8.71c-1.02-14.98-.22-31.75,15.03-32.65Zm131.33,0c10.34-.62,15.75,6.53,16.04,11.69.41,7.21-5.21,9.99-11.85,12.25h0s-14.63,4.92-19.22,8.71c-1.02-14.98-.22-31.75,15.03-32.65Z"/><circle class="cls-1" cx="308.1" cy="102.16" r="6.9" transform="translate(95.81 347.71) rotate(-67.5)"/></svg>